<?xml version="1.0" standalone="no"?>
<!DOCTYPE svg PUBLIC "-//W3C//DTD SVG 20010904//EN"
 "http://www.w3.org/TR/2001/REC-SVG-20010904/DTD/svg10.dtd">
<svg version="1.0" xmlns="http://www.w3.org/2000/svg"
 width="640.000000pt" height="640.000000pt" viewBox="0 0 640.000000 640.000000"
 preserveAspectRatio="xMidYMid meet">

<g transform="translate(0.000000,640.000000) scale(0.100000,-0.100000)"
fill="#000000" stroke="none">
<path d="M300 6366 c-74 -16 -127 -46 -176 -98 -52 -54 -79 -107 -93 -183 -16
-83 -16 -5687 0 -5770 14 -78 47 -140 101 -191 54 -52 107 -79 183 -93 41 -8
523 -11 1577 -11 l1518 0 0 1230 0 1230 -410 0 -410 0 0 485 0 485 409 0 408
0 6 438 c4 386 7 451 26 556 92 516 397 837 904 948 94 21 126 23 407 22 269
0 572 -15 623 -30 16 -5 17 -34 17 -435 l0 -429 -292 0 c-322 -1 -407 -10
-501 -54 -95 -45 -156 -137 -176 -266 -6 -36 -11 -218 -11 -407 l0 -343 469 0
c259 0 472 -4 475 -9 3 -4 -22 -216 -54 -470 -33 -254 -60 -469 -60 -477 0
-12 -62 -14 -415 -14 l-415 0 0 -1230 0 -1230 808 0 c540 0 828 4 867 11 78
14 140 47 191 101 52 54 79 107 93 183 16 83 16 5687 0 5770 -14 78 -47 140
-101 191 -54 52 -107 79 -183 93 -89 17 -5710 14 -5785 -3z"/>
</g>
</svg>
